Fly_normalized_Motion_pl02
version=1
nRows=20
nColumns=43
inDegrees=yes
endheader
time		pelvis_tilt		pelvis_list		pelvis_rotation		pelvis_tx		pelvis_ty		pelvis_tz		hip_flexion_r		hip_adduction_r		hip_rotation_r		knee_angle_r		ankle_angle_r		subtalar_angle_r		mtp_angle_r		hip_flexion_l		hip_adduction_l		hip_rotation_l		knee_angle_l		ankle_angle_l		subtalar_angle_l		mtp_angle_l		lumbar_extension		lumbar_bending		lumbar_rotation		neck_flexion		neck_lateral_bending		neck_rotation		arm_flex_r		arm_add_r		arm_rot_r		elbow_flex_r		pro_sup_r		wrist_flex_r		wrist_dev_r		hand_finger_flex_r		arm_flex_l		arm_add_l		arm_rot_l		elbow_flex_l		pro_sup_l		wrist_flex_l		wrist_dev_l		hand_finger_flex_l		
0.841667		1.981984		-12.604860		91.078906		-0.012577		1.488741		0.947051		72.193822		-7.318603		-4.214696		-67.031462		-16.400793		-7.935283		13.975143		63.035234		-8.207506		-7.105895		-48.072920		-16.629345		-7.909398		-4.279763		-38.615576		-0.246769		6.420448		24.524955		-4.578710		-2.340023		-5.757097		-52.174435		-15.047968		60.074915		114.180954		-5.361579		3.733850		46.383420		23.899965		-56.238768		10.427005		49.784606		128.264433		-41.364969		4.416763		90.000210		
0.845783		1.948684		-12.333944		90.917232		-0.012870		1.477758		0.936246		70.786845		-7.227368		-4.252396		-64.908923		-16.912091		-8.060746		13.977409		61.785523		-8.359157		-7.623566		-46.361825		-16.840080		-8.207796		-4.420025		-38.310289		-0.235342		6.274730		23.943162		-4.753124		-2.098965		-9.430275		-51.517786		-16.739030		60.037152		113.589805		-5.468460		2.977235		46.240967		18.450060		-56.558781		6.999907		49.474548		127.792772		-41.563779		4.287009		90.000210		
0.849899		2.122263		-11.869585		90.952783		-0.013447		1.467095		0.925241		69.033997		-7.219442		-4.630300		-62.680722		-17.381228		-8.159747		14.096773		60.362868		-8.505784		-7.932667		-44.625528		-17.080146		-8.267669		-4.661589		-38.228229		0.067516		5.635093		23.452100		-4.674893		-1.207729		-11.909767		-50.898187		-17.517486		59.709134		113.723663		-5.255899		2.079682		46.208118		11.480265		-56.597306		1.293400		49.514940		128.431978		-41.190247		3.166290		90.000210		
0.854015		2.015292		-11.551250		90.830260		-0.013916		1.455667		0.914274		67.557029		-7.216571		-4.623559		-60.527007		-17.841504		-8.105705		14.160503		59.008584		-8.523218		-8.419274		-42.849209		-17.283313		-8.223476		-4.816489		-37.872466		0.018064		5.291958		22.601127		-4.641689		-0.873213		-15.183907		-50.146444		-18.850284		59.455735		113.294350		-5.718654		1.194883		46.288996		5.789321		-56.446907		-2.460828		49.173798		128.237566		-41.367564		3.059357		90.000210		
0.858131		1.918588		-11.278377		90.744164		-0.014453		1.443839		0.903286		66.127574		-7.238357		-4.619824		-58.379224		-18.301586		-7.968989		14.193194		57.706784		-8.490366		-8.815224		-41.059129		-17.519142		-8.026638		-4.936470		-37.400360		-0.013116		5.091830		21.567875		-4.605897		-0.708966		-18.720424		-49.257799		-20.494680		59.266911		112.938066		-6.318737		0.386431		46.384632		0.630726		-56.123735		-5.603385		48.657088		127.931562		-41.689739		2.969467		90.000210		
0.862247		1.862718		-10.903496		90.684219		-0.015015		1.432046		0.892169		64.531598		-7.264839		-4.703452		-56.163533		-18.770658		-7.744367		14.198851		56.285600		-8.467387		-9.174308		-39.248964		-17.797214		-7.675719		-5.024281		-37.022469		-0.009552		4.999321		20.519973		-4.562427		-0.611826		-22.343002		-48.216735		-22.382971		59.091453		112.881349		-7.020668		-0.615435		46.507848		-4.186892		-55.610239		-8.492477		48.076288		127.488099		-42.184429		2.680864		90.000210		
0.866364		1.841626		-10.509475		90.639326		-0.015462		1.420093		0.880949		62.872084		-7.277012		-4.855069		-53.900976		-19.273500		-7.444048		14.243642		54.829537		-8.459330		-9.525002		-37.398245		-18.123909		-7.188884		-5.117471		-36.612195		0.002639		4.758429		19.345429		-4.403829		-0.359571		-25.489940		-47.170754		-23.876997		58.768798		113.178168		-7.715314		-1.685883		46.685866		-9.311991		-54.888253		-11.945604		47.619254		127.094785		-42.477750		2.118138		90.000210		
0.870480		1.834801		-10.219389		90.613343		-0.015885		1.407634		0.869678		61.349898		-7.307819		-5.078893		-51.680412		-19.845444		-7.110576		14.230227		53.492653		-8.457923		-9.912761		-35.539028		-18.642298		-6.713425		-5.211524		-35.903774		0.029842		4.650167		17.487514		-4.263412		-0.154211		-28.642311		-46.099190		-25.269676		58.306066		113.303809		-8.354964		-2.324525		46.790878		-13.817894		-54.297845		-14.228482		46.941550		126.711745		-42.692307		1.831644		89.990583		
0.874596		1.824035		-9.676532		90.571273		-0.016018		1.395619		0.858194		59.448003		-7.273922		-5.284105		-49.287946		-20.441471		-6.763681		14.361914		51.889106		-8.492626		-10.340165		-33.755422		-19.081323		-6.080622		-5.288462		-35.637340		-0.039309		3.928261		16.435191		-3.712461		0.640025		-30.779955		-45.206810		-25.876461		57.712618		114.177821		-9.213097		-3.737286		47.088786		-19.943126		-52.988796		-19.383395		46.999924		125.938322		-42.446438		0.533248		89.496225		
0.878712		1.848568		-9.470042		90.527208		-0.016354		1.382597		0.846781		57.970553		-7.244368		-5.524812		-46.989159		-21.136125		-6.356659		14.321527		50.670740		-8.505440		-10.728962		-31.964616		-19.656564		-5.708368		-5.363055		-34.789737		-0.021418		3.944044		14.496403		-3.566610		0.631500		-34.058042		-44.018829		-27.380537		57.391019		114.223863		-10.085774		-4.278368		47.078096		-24.035425		-51.905048		-21.956132		46.471817		125.176722		-42.631905		0.381112		89.278242		
0.882828		1.975206		-9.088857		90.518095		-0.016441		1.369809		0.835214		56.228369		-7.115919		-5.864876		-44.605212		-21.854864		-5.963329		14.263437		49.278851		-8.612566		-11.133315		-30.195724		-20.218333		-5.316703		-5.392732		-34.195923		0.054874		3.820441		12.896580		-3.305733		0.762047		-37.025865		-42.821872		-28.730437		57.071825		114.691593		-11.088582		-5.252707		46.909721		-28.481392		-50.581775		-25.173343		46.225982		123.820375		-42.607531		-0.212105		88.724228		
0.886944		2.047921		-8.951947		90.551014		-0.016708		1.356232		0.823565		54.808259		-7.082291		-6.215306		-42.339525		-22.544183		-5.574094		14.156517		48.137344		-8.625373		-11.610841		-28.399258		-20.863769		-5.042580		-5.467299		-33.130764		0.152393		3.931039		10.462418		-3.209847		0.787111		-40.377497		-41.458077		-30.334988		56.875659		114.564479		-11.737044		-5.561965		46.820175		-32.080567		-49.599101		-26.947334		45.625975		123.120812		-42.897149		-0.267533		88.701201		
0.891061		2.165712		-8.475555		90.504628		-0.016599		1.343270		0.811766		52.936916		-6.931690		-6.725298		-39.923029		-23.204159		-5.231017		14.018677		46.695670		-8.757384		-12.023656		-26.795099		-21.436070		-4.732082		-5.390005		-32.595562		0.151110		3.610901		8.731236		-2.761881		1.180614		-42.899227		-40.380025		-31.334218		56.489966		115.205737		-12.442424		-6.591454		46.137669		-36.696223		-47.937608		-30.526575		45.623143		121.028377		-42.550314		-1.452977		88.038695		
0.895177		2.247887		-8.376393		90.483906		-0.017024		1.329304		0.799966		51.549217		-6.828842		-7.055327		-37.654615		-23.790383		-4.826683		13.908708		45.628104		-8.785060		-12.517329		-25.131322		-21.946559		-4.606473		-5.417635		-31.473619		0.260467		3.695192		6.285433		-2.649730		1.042834		-46.145559		-39.006070		-32.943587		56.430322		114.997071		-13.004001		-6.863702		45.880989		-40.132232		-46.585463		-32.545719		45.169479		120.183096		-42.833860		-1.568743		87.986471		
0.899293		2.362051		-8.078288		90.433680		-0.016685		1.315610		0.788068		49.918431		-6.635809		-7.560521		-35.344244		-24.270163		-4.379955		13.783485		44.409065		-8.914001		-12.902722		-23.630111		-22.376957		-4.504395		-5.298525		-30.617355		0.247941		3.529350		3.979520		-2.315461		1.165244		-48.862762		-37.790257		-34.038788		56.268518		115.086771		-13.343137		-7.456034		44.955406		-44.080685		-44.927046		-35.474981		45.055257		118.530311		-42.638735		-2.335307		87.661721		
0.903409		2.387212		-7.996942		90.357127		-0.016995		1.301317		0.776203		48.597866		-6.527873		-7.933257		-33.169328		-24.616051		-4.036552		13.703089		43.365305		-8.899780		-13.266473		-22.073567		-22.673219		-4.476944		-5.281657		-29.469682		0.274523		3.548787		1.436330		-2.192897		1.162392		-51.951053		-36.375451		-35.599273		56.330430		114.752952		-13.709995		-7.720356		44.596083		-47.474094		-43.459808		-37.389034		44.752132		117.797386		-42.895516		-2.510044		87.621546		
0.907525		2.392616		-7.785917		90.290592		-0.016744		1.287185		0.764210		47.129931		-6.434970		-8.458231		-31.030861		-24.674282		-3.350132		13.700053		42.232289		-8.903459		-13.479061		-20.654760		-22.902525		-4.465332		-4.906484		-28.483310		0.107868		3.121831		-1.029045		-1.619162		1.677947		-54.407499		-35.402979		-36.461284		56.174284		114.348075		-13.000972		-8.151600		42.647292		-51.493283		-41.524300		-40.359913		44.778232		116.383125		-42.153328		-3.618064		87.179219		
0.911641		2.383370		-7.747901		90.139706		-0.016735		1.272558		0.752368		45.944114		-6.262963		-8.778733		-29.015542		-24.822932		-3.083767		13.670658		41.295703		-8.910947		-13.716023		-19.309632		-22.955913		-4.676452		-4.848688		-27.300934		0.051065		3.221418		-3.619809		-1.621204		1.603865		-57.401353		-33.836349		-38.073076		56.362495		113.905743		-13.222895		-8.352359		42.323134		-54.569763		-40.032377		-42.034245		44.451181		115.981794		-42.465387		-3.619336		87.125765		
0.915758		2.381714		-7.720776		90.002643		-0.016729		1.257800		0.740596		44.792082		-6.104110		-9.125129		-27.062354		-24.834042		-2.714739		13.684089		40.434063		-8.910785		-13.795283		-18.100797		-22.925430		-4.973925		-4.775435		-26.135734		-0.015839		3.229995		-6.086734		-1.577702		1.702888		-60.203892		-32.355663		-39.554550		56.494337		113.398484		-13.224563		-8.575371		42.020934		-57.707359		-38.476197		-43.691040		44.199180		115.587921		-42.594803		-3.666014		87.108823		
0.919874		2.371484		-7.712394		89.866162		-0.016764		1.242905		0.728943		43.713186		-5.963424		-9.514070		-25.224283		-24.752298		-2.299281		13.740350		39.673853		-8.900775		-13.748659		-17.072713		-22.857870		-5.410695		-4.691332		-24.985865		-0.101941		3.191729		-8.434710		-1.522460		1.943415		-62.869747		-30.897257		-41.033450		56.609068		112.821654		-13.074607		-8.798029		41.749312		-60.767019		-36.836001		-45.346639		43.963732		115.241222		-42.557225		-3.725759		87.070223		
